<?xml version="1.0" encoding="UTF-8" standalone="no"?>
<!-- Created with Inkscape (http://www.inkscape.org/) -->

<svg
   width="210mm"
   height="297mm"
   viewBox="0 0 210 297"
   version="1.1"
   id="svg1"
   xml:space="preserve"
   inkscape:version="1.3 (0e150ed, 2023-07-21)"
   sodipodi:docname="studenture_icons.svg"
   xmlns:inkscape="http://www.inkscape.org/namespaces/inkscape"
   xmlns:sodipodi="http://sodipodi.sourceforge.net/DTD/sodipodi-0.dtd"
   xmlns="http://www.w3.org/2000/svg"
   xmlns:svg="http://www.w3.org/2000/svg"><sodipodi:namedview
     id="namedview1"
     pagecolor="#ffffff"
     bordercolor="#000000"
     borderopacity="0.25"
     inkscape:showpageshadow="2"
     inkscape:pageopacity="0.0"
     inkscape:pagecheckerboard="0"
     inkscape:deskcolor="#d1d1d1"
     inkscape:document-units="mm"
     inkscape:zoom="1.6819304"
     inkscape:cx="269.63066"
     inkscape:cy="429.56593"
     inkscape:window-width="1432"
     inkscape:window-height="738"
     inkscape:window-x="0"
     inkscape:window-y="25"
     inkscape:window-maximized="0"
     inkscape:current-layer="layer1" /><defs
     id="defs1"><rect
       x="45.404692"
       y="253.92994"
       width="613.80417"
       height="400.23395"
       id="rect1" /></defs><g
     inkscape:label="Layer 1"
     inkscape:groupmode="layer"
     id="layer1"><path
       id="text1"
       style="font-size:37.3333px;font-family:DigitalSans_Bold;-inkscape-font-specification:DigitalSans_Bold;white-space:pre;fill:#4bffac;stroke-width:8.36852"
       d="M 42.677498 76.623747 L 42.677498 77.808171 C 42.71265 77.906545 42.747218 77.962687 42.80824 78.020044 C 42.859308 78.068084 42.866753 78.072698 42.930713 78.092908 C 43.09735 78.145645 43.242818 78.092821 43.55083 77.869149 C 43.743303 77.729401 43.812395 77.683902 43.920833 77.624202 C 44.171443 77.486314 44.453938 77.397161 44.723368 77.370471 C 45.170877 77.326159 45.702428 77.455178 46.042668 77.690865 C 46.206902 77.80463 46.404166 78.001973 46.538761 78.187992 C 46.74084 78.467273 46.913015 79.015007 46.910315 79.368799 C 46.909675 79.458073 46.891994 79.621765 46.872074 79.717615 C 46.819871 79.969062 46.720999 80.239675 46.612142 80.431266 C 46.484678 80.655682 46.234974 80.920343 46.011662 81.067403 C 45.889603 81.1478 45.701622 81.231904 45.533138 81.281344 C 45.127172 81.400585 44.715504 81.403468 44.341479 81.289095 C 44.070075 81.206117 43.865462 81.098124 43.579769 80.887569 C 43.409926 80.762408 43.31232 80.700728 43.23147 80.667428 C 43.031569 80.585083 42.861589 80.624133 42.752946 80.777498 C 42.726949 80.814222 42.70003 80.872031 42.677498 80.934595 L 42.677498 82.106099 L 49.79231 82.106099 L 49.79231 102.00979 L 56.907638 102.00979 L 56.907638 82.106099 L 64.071025 82.106099 L 64.071025 76.623747 L 42.677498 76.623747 z " /><path
       id="text1-5"
       style="font-size:37.3333px;font-family:DigitalSans_Bold;-inkscape-font-specification:DigitalSans_Bold;white-space:pre;fill:#4bbeff;fill-opacity:1;stroke-width:8.36852"
       d="m 28.036625,76.617711 c -1.489374,-0.0248 -1.839765,0.241378 -3.167249,0.798917 -0.793253,0.45841 -1.408267,1.078272 -1.845366,1.858802 -0.453288,0.792929 -0.680062,1.579533 -0.680062,2.360062 v 5.370732 c 0.05791,2.548272 2.908866,4.943861 5.595525,4.980579 h 5.123718 c -4.985977,0 1.181586,0.05546 1.651062,0.16691 0.453288,0.12389 0.680062,0.48949 0.680062,1.09657 0.03238,0.9416 0.01618,1.7163 -0.04858,2.32338 -0.06476,0.29733 -0.291534,0.52622 -0.680062,0.68729 -0.40472,0.19823 -1.003535,0.29766 -1.796789,0.29766 H 21.334191 v 5.445157 h 14.060124 c 4.646198,-0.0495 5.959346,-1.84027 6.056478,-5.371257 v -5.09168 c -0.09713,-3.270795 -1.240199,-4.943454 -5.546432,-5.017784 h -5.172294 c -1.521751,0.0495 -2.299263,-0.433615 -2.33164,-1.449524 v -1.337902 c 0,-0.38408 0.0486,-0.688056 0.145727,-0.911056 0.161888,-0.483189 0.971279,-0.724504 2.428276,-0.724504 h 11.534696 v -1.02526 c 0.0068,-0.02238 0.01339,-0.04468 0.0217,-0.0677 0.04732,-0.131021 0.09075,-0.203931 0.180868,-0.303341 0.08453,-0.09323 0.131556,-0.129539 0.225826,-0.174149 0.238003,-0.112665 0.509453,-0.07311 0.773596,0.112138 0.03213,0.02254 0.120284,0.0921 0.195854,0.154512 0.235783,0.194744 0.385001,0.285798 0.591178,0.361218 0.109765,0.04015 0.406028,0.01508 0.507675,0.02628 0.104477,0.01154 0.28663,0.0051 0.390157,-0.01395 0.111755,-0.02055 0.299097,-0.08887 0.403077,-0.146761 0.379861,-0.211505 0.681142,-0.628181 0.786515,-1.088306 0.03749,-0.1637 0.05007,-0.302912 0.05013,-0.547253 7.9e-5,-0.322975 -0.02749,-0.513837 -0.108004,-0.744141 -0.130577,-0.37354 -0.41001,-0.715468 -0.728637,-0.891418 -0.367346,-0.202854 -0.947212,-0.162391 -1.360854,0.0063 -0.173675,0.07081 -0.319938,0.163854 -0.531233,0.33848 -0.224332,0.185409 -0.347703,0.260221 -0.501262,0.303341 -0.200739,0.05633 -0.414629,0.01509 -0.58291,-0.112138 -0.08636,-0.06529 -0.191269,-0.191684 -0.242879,-0.292489 -0.02833,-0.05533 -0.0518,-0.112509 -0.0708,-0.175699 v -1.201994 z"
       sodipodi:nodetypes="cccsccsccccsccccccccscscccscssscsssssssscssccc"
       inkscape:export-filename="text1-5.png"
       inkscape:export-xdpi="96"
       inkscape:export-ydpi="96" /><path
       id="path2-6-7"
       style="fill:#4bffac;fill-opacity:1;stroke-width:0.0313667"
       d="m 41.113989,115.90833 v 1.18443 c 0.03515,0.0984 0.06972,0.15452 0.130741,0.21187 0.05107,0.048 0.05851,0.0526 0.122473,0.0729 0.166637,0.0527 0.312107,-8e-5 0.620117,-0.22375 0.192473,-0.13975 0.261566,-0.18525 0.370004,-0.24495 0.250608,-0.13789 0.533105,-0.22704 0.802535,-0.25373 0.447507,-0.0443 0.979059,0.0847 1.319299,0.32039 0.164234,0.11377 0.361499,0.31111 0.496094,0.49713 0.202077,0.27928 0.374253,0.82701 0.371553,1.18081 -6.4e-4,0.0893 -0.01832,0.25296 -0.03824,0.34881 -0.0522,0.25145 -0.151076,0.52206 -0.259933,0.71365 -0.127464,0.22442 -0.377168,0.48908 -0.60048,0.63614 -0.122059,0.0804 -0.31004,0.1645 -0.478524,0.21394 -0.405964,0.11924 -0.817635,0.12267 -1.191658,0.008 -0.271404,-0.083 -0.476018,-0.19098 -0.761711,-0.40153 -0.169843,-0.12517 -0.267449,-0.18684 -0.348299,-0.22014 -0.199901,-0.0824 -0.369881,-0.0433 -0.478524,0.11007 -0.026,0.0367 -0.05292,0.0945 -0.07545,0.1571 v 1.1715 H 48.2288 v 9.35912 h 0.551904 c 0.187258,0.0175 0.294593,0.038 0.417029,0.0822 0.131012,0.0473 0.203104,0.0911 0.302824,0.18086 0.09326,0.0845 0.129119,0.13173 0.174149,0.22583 0.112661,0.238 0.07361,0.50947 -0.111621,0.7736 -0.02255,0.0321 -0.09214,0.12035 -0.154512,0.19585 -0.194744,0.23578 -0.285819,0.385 -0.361218,0.59118 -0.04007,0.10977 -0.07409,0.24874 -0.08527,0.35036 -0.0116,0.10447 0.02247,0.45364 0.04186,0.55708 0.02053,0.11176 0.08897,0.29906 0.146761,0.40307 0.211508,0.37984 0.628185,0.68115 1.088306,0.78652 0.163683,0.0376 0.302906,0.0501 0.547253,0.0501 0.322979,7e-5 0.513841,-0.0275 0.744141,-0.108 0.373535,-0.13057 0.715441,-0.41003 0.891419,-0.72864 0.202926,-0.36736 0.193524,-0.95684 0.0248,-1.37046 -0.07082,-0.17367 -0.164375,-0.31991 -0.338997,-0.53123 -0.185323,-0.22437 -0.259594,-0.34773 -0.302824,-0.50126 -0.05631,-0.20075 -0.01561,-0.41462 0.111621,-0.58291 0.06529,-0.0864 0.191697,-0.19128 0.292489,-0.24288 0.139934,-0.0717 0.295083,-0.11049 0.521415,-0.13126 h 0.461987 l 0.03514,-9.35963 h 7.163387 v -5.48236 z" /><path
       id="text1-3-9"
       style="font-size:37.3333px;font-family:DigitalSans_Bold;-inkscape-font-specification:DigitalSans_Bold;white-space:pre;fill:#4bffac;stroke-width:8.36852"
       d="m 48.267415,130.97201 v 10.47068 h 4.998661 v -10.47068 h -0.991154 c -0.06581,0.0286 -0.110872,0.0599 -0.15658,0.10852 -0.04814,0.0511 -0.05262,0.0591 -0.07286,0.12299 -0.05272,0.16662 -4.58e-4,0.31214 0.223242,0.62012 0.139293,0.19275 0.185626,0.26134 0.244946,0.37 0.137853,0.25062 0.227508,0.53261 0.254248,0.80202 0.0443,0.44753 -0.08522,0.97957 -0.320911,1.31982 -0.113741,0.16424 -0.311104,0.36098 -0.497127,0.49558 -0.279287,0.20209 -0.827023,0.37507 -1.180806,0.37207 -0.08928,-7e-4 -0.25236,-0.0193 -0.3483,-0.0388 -0.251464,-0.0522 -0.522341,-0.15098 -0.714168,-0.25942 -0.224373,-0.1275 -0.489054,-0.37768 -0.636137,-0.60099 -0.0804,-0.12206 -0.16465,-0.3095 -0.21394,-0.47801 -0.119732,-0.40596 -0.122112,-0.81815 -0.0078,-1.19218 0.08298,-0.27141 0.190451,-0.47601 0.40101,-0.76171 0.125228,-0.16983 0.187318,-0.2675 0.220658,-0.3483 0.08235,-0.19988 0.0433,-0.36992 -0.110071,-0.47852 -0.02558,-0.018 -0.06296,-0.0359 -0.103353,-0.0532 z" /><path
       id="text1-5-0-7"
       style="font-size:37.3333px;font-family:DigitalSans_Bold;-inkscape-font-specification:DigitalSans_Bold;white-space:pre;fill:#4bbeff;fill-opacity:1;stroke-width:8.36852"
       d="M 26.2816 115.88905 C 24.792228 115.86425 24.441833 116.13043 23.114351 116.68797 C 22.3211 117.14638 21.706085 117.76624 21.268986 118.54677 C 20.815698 119.3397 20.588924 120.1263 20.588924 120.90683 L 20.588924 126.27756 C 20.646834 128.82583 23.497795 131.22143 26.184448 131.25814 L 30.107206 131.25814 L 30.107206 129.88768 C 30.130164 129.85425 30.155408 129.82084 30.188338 129.78433 C 30.272861 129.69111 30.320661 129.65528 30.414681 129.61018 C 30.65269 129.49752 30.923631 129.53708 31.18776 129.72231 C 31.219902 129.74486 31.308084 129.81443 31.383614 129.87683 C 31.619395 130.07157 31.768605 130.16265 31.974792 130.23805 C 32.084547 130.27815 32.224041 130.31211 32.325675 130.32331 C 32.430143 130.33491 32.778816 130.30085 32.882231 130.28145 C 32.993982 130.26092 33.181798 130.19249 33.285824 130.13469 C 33.665657 129.92318 33.966442 129.5065 34.071822 129.04639 C 34.109362 128.88268 34.122425 128.74347 34.122465 128.49913 C 34.122533 128.17615 34.094454 127.98529 34.013944 127.75499 C 33.883381 127.38146 33.603908 127.03955 33.285307 126.86357 C 32.91795 126.66064 32.328993 126.67006 31.915365 126.83877 C 31.741695 126.90959 31.595426 127.00261 31.384131 127.17725 C 31.15977 127.36259 31.035881 127.43739 30.882353 127.48059 C 30.681605 127.53691 30.467714 127.49566 30.299443 127.36845 C 30.235769 127.32032 30.162267 127.23897 30.107206 127.15916 L 30.107206 125.79646 C 29.119547 125.76406 30.110405 125.84999 28.977043 125.79439 C 27.455294 125.84389 26.677779 125.36077 26.645402 124.34486 L 26.645402 123.00696 C 26.645402 122.62288 26.694002 122.31891 26.79113 122.09591 C 26.953016 121.61272 27.762412 121.3714 29.219405 121.3714 L 40.754102 121.3714 L 40.754102 120.34614 C 40.760902 120.32374 40.767496 120.30145 40.775806 120.27845 C 40.823126 120.14743 40.866556 120.07452 40.956673 119.97511 C 41.041203 119.88191 41.088229 119.84557 41.182499 119.80096 C 41.420502 119.6883 41.691954 119.72786 41.956095 119.91309 C 41.988225 119.93559 42.076379 120.00519 42.151949 120.06761 C 42.387732 120.26236 42.536952 120.3534 42.743127 120.42882 C 42.852892 120.46892 43.148943 120.44398 43.25059 120.45518 C 43.355067 120.46668 43.53722 120.46013 43.640747 120.44123 C 43.752502 120.42063 43.939843 120.35233 44.043823 120.29447 C 44.423684 120.08297 44.724966 119.66628 44.830339 119.20616 C 44.867829 119.04245 44.880405 118.90325 44.880465 118.65891 C 44.880544 118.33594 44.852975 118.14508 44.772461 117.91477 C 44.641884 117.54123 44.36245 117.1993 44.043823 117.02335 C 43.676479 116.8205 43.096823 116.86136 42.683183 117.02955 C 42.509508 117.10035 42.363244 117.19341 42.151949 117.36803 C 41.927617 117.55344 41.804247 117.62825 41.650688 117.67137 C 41.449949 117.72767 41.236057 117.68647 41.067778 117.55923 C 40.981418 117.49393 40.876508 117.36754 40.824898 117.26674 C 40.796568 117.21144 40.773102 117.15423 40.754102 117.09104 L 40.754102 115.88905 L 26.2816 115.88905 z M 30.107206 131.26744 L 30.107206 131.30051 L 30.107206 131.26744 z " /><path
       id="text1-5-0-2"
       style="font-size:37.3333px;font-family:DigitalSans_Bold;-inkscape-font-specification:DigitalSans_Bold;white-space:pre;fill:#4bbeff;fill-opacity:1;stroke-width:8.36852"
       d="m 30.285966,125.69526 0.03204,1.23196 c 0.03552,0.10016 0.07014,0.15604 0.131775,0.21394 0.05108,0.0481 0.05853,0.0527 0.122474,0.0729 0.16662,0.0527 0.312115,4.2e-4 0.620117,-0.22325 0.192718,-0.13936 0.261323,-0.18626 0.370003,-0.24546 0.250612,-0.13786 0.533123,-0.22703 0.802535,-0.25373 0.447532,-0.0443 0.979058,0.0847 1.319299,0.32039 0.164242,0.11375 0.36149,0.31162 0.496094,0.49765 0.202092,0.27929 0.37507,0.82649 0.37207,1.18029 -6.7e-4,0.0893 -0.0193,0.25281 -0.03876,0.34881 -0.05216,0.25146 -0.151516,0.52232 -0.259932,0.71417 -0.127497,0.22438 -0.377147,0.48913 -0.600481,0.63614 -0.122078,0.0803 -0.310013,0.16412 -0.478523,0.21342 -0.405969,0.11972 -0.817645,0.12262 -1.191659,0.008 -0.271411,-0.083 -0.476013,-0.19097 -0.76171,-0.40153 -0.169834,-0.12521 -0.26745,-0.18684 -0.3483,-0.22014 -0.199897,-0.0824 -0.369895,-0.0433 -0.478523,0.11007 -0.04125,0.0586 -0.08468,0.16913 -0.108521,0.26975 v 0.99012 h 1.2361 c -0.806276,0 -0.941888,0.004 -1.2361,0.007 v 0.0346 c 0.97445,0.0278 2.650782,0.0695 2.887162,0.12558 0.453287,0.12389 0.680062,0.48949 0.680062,1.09657 0.03238,0.9416 0.01618,1.71629 -0.04858,2.32337 -0.06476,0.29733 -0.291534,0.52623 -0.680061,0.6873 -0.40472,0.19823 -1.003537,0.29766 -1.79679,0.29766 h -11.53469 v 5.44514 H 33.85319 c 4.646189,-0.0495 5.959347,-1.84026 6.056478,-5.37125 v -5.09168 c -0.09713,-3.27078 -1.240207,-4.94345 -5.546431,-5.01778 z"
       sodipodi:nodetypes="cccccccsscccscsccccccccccccsccccccc" /><path
       id="path2-6-7-6"
       style="fill:#4bffac;fill-opacity:1;stroke-width:0.0313667"
       d="m 91.11691,115.98616 v 1.18443 c 0.03515,0.0984 0.06972,0.15452 0.130741,0.21187 0.05107,0.048 0.05851,0.0526 0.122473,0.0729 0.166637,0.0527 0.312107,-8e-5 0.620117,-0.22375 0.192473,-0.13975 0.261566,-0.18525 0.370004,-0.24495 0.250608,-0.13789 0.533105,-0.22704 0.802535,-0.25373 0.447507,-0.0443 0.979059,0.0847 1.319299,0.32039 0.164234,0.11377 0.361499,0.31111 0.496094,0.49713 0.202077,0.27928 0.374253,0.82701 0.371553,1.18081 -6.4e-4,0.0893 -0.01832,0.25296 -0.03824,0.34881 -0.0522,0.25145 -0.151076,0.52206 -0.259933,0.71365 -0.127464,0.22442 -0.377168,0.48908 -0.60048,0.63614 -0.122059,0.0804 -0.31004,0.1645 -0.478524,0.21394 -0.405964,0.11924 -0.817635,0.12267 -1.191658,0.008 -0.271404,-0.083 -0.476018,-0.19098 -0.761711,-0.40153 -0.169843,-0.12517 -0.267449,-0.18684 -0.348299,-0.22014 -0.199901,-0.0824 -0.369881,-0.0433 -0.478524,0.11007 -0.026,0.0367 -0.05292,0.0945 -0.07545,0.1571 v 1.1715 h 7.114814 v 9.35912 h 0.551904 c 0.18726,0.0175 0.29459,0.038 0.41703,0.0822 0.13101,0.0473 0.2031,0.0911 0.30282,0.18086 0.0933,0.0845 0.12912,0.13173 0.17415,0.22583 0.11266,0.238 0.0736,0.50947 -0.11162,0.7736 -0.0225,0.0321 -0.0921,0.12035 -0.15451,0.19585 -0.19475,0.23578 -0.28582,0.385 -0.36122,0.59118 -0.0401,0.10977 -0.0741,0.24874 -0.0853,0.35036 -0.0116,0.10447 0.0225,0.45364 0.0419,0.55708 0.0205,0.11176 0.089,0.29906 0.14676,0.40307 0.21151,0.37984 0.62819,0.68115 1.088315,0.78652 0.16368,0.0376 0.3029,0.0501 0.54725,0.0501 0.32298,7e-5 0.51384,-0.0275 0.74414,-0.108 0.37354,-0.13057 0.71544,-0.41003 0.89142,-0.72864 0.20293,-0.36736 0.19353,-0.95684 0.0248,-1.37046 -0.0708,-0.17367 -0.16437,-0.31991 -0.339,-0.53123 -0.18532,-0.22437 -0.25959,-0.34773 -0.30282,-0.50126 -0.0563,-0.20075 -0.0156,-0.41462 0.11162,-0.58291 0.0653,-0.0864 0.1917,-0.19128 0.29249,-0.24288 0.13993,-0.0717 0.29508,-0.11049 0.52142,-0.13126 h 0.46198 l 0.0351,-9.35963 h 7.16339 v -5.48236 z" /><path
       id="text1-3-9-6"
       style="font-size:37.3333px;font-family:DigitalSans_Bold;-inkscape-font-specification:DigitalSans_Bold;white-space:pre;fill:#4bbeff;fill-opacity:1;stroke-width:8.36852"
       d="m 98.270336,131.04984 v 10.47068 H 103.269 v -10.47068 h -0.99115 c -0.0658,0.0286 -0.11087,0.0599 -0.15658,0.10852 -0.0481,0.0511 -0.0526,0.0591 -0.0729,0.12299 -0.0527,0.16662 -4.6e-4,0.31214 0.22324,0.62012 0.13929,0.19275 0.18563,0.26134 0.24495,0.37 0.13785,0.25062 0.2275,0.53261 0.25424,0.80202 0.0443,0.44753 -0.0852,0.97957 -0.32091,1.31982 -0.11374,0.16424 -0.3111,0.36098 -0.49712,0.49558 -0.27929,0.20209 -0.82703,0.37507 -1.18081,0.37207 -0.0893,-7e-4 -0.25236,-0.0193 -0.3483,-0.0388 -0.25146,-0.0522 -0.522345,-0.15098 -0.714175,-0.25942 -0.22437,-0.1275 -0.48905,-0.37768 -0.63614,-0.60099 -0.0804,-0.12206 -0.16464,-0.3095 -0.213935,-0.47801 -0.119732,-0.40596 -0.122112,-0.81815 -0.0078,-1.19218 0.08298,-0.27141 0.190455,-0.47601 0.401005,-0.76171 0.12523,-0.16983 0.18732,-0.2675 0.22066,-0.3483 0.0823,-0.19988 0.0433,-0.36992 -0.11007,-0.47852 -0.0256,-0.018 -0.063,-0.0359 -0.10335,-0.0532 z" /><path
       id="text1-5-0-7-5"
       style="font-size:37.3333px;font-family:DigitalSans_Bold;-inkscape-font-specification:DigitalSans_Bold;white-space:pre;fill:#4bbeff;fill-opacity:1;stroke-width:8.36852"
       d="m 76.284521,115.96688 c -1.489372,-0.0248 -1.839767,0.24138 -3.167249,0.79892 -0.793251,0.45841 -1.408266,1.07827 -1.845365,1.8588 -0.453288,0.79293 -0.680062,1.57953 -0.680062,2.36006 v 5.37073 c 0.05791,2.54827 2.908871,4.94387 5.595524,4.98058 h 3.922758 v -1.37046 c 0.02296,-0.0334 0.0482,-0.0668 0.08113,-0.10335 0.08452,-0.0932 0.132323,-0.12905 0.226343,-0.17415 0.238009,-0.11266 0.50895,-0.0731 0.773079,0.11213 0.03214,0.0225 0.120324,0.0921 0.195854,0.15452 0.235781,0.19474 0.384991,0.28582 0.591178,0.36122 0.109755,0.0401 0.249249,0.0741 0.350883,0.0853 0.104468,0.0116 0.453141,-0.0225 0.556556,-0.0419 0.111751,-0.0205 0.299567,-0.089 0.403593,-0.14676 0.379833,-0.21151 0.680618,-0.62819 0.785998,-1.0883 0.03754,-0.16371 0.0506,-0.30292 0.05064,-0.54726 6.8e-5,-0.32298 -0.02801,-0.51384 -0.108521,-0.74414 -0.130563,-0.37353 -0.410036,-0.71544 -0.728637,-0.89142 -0.367357,-0.20293 -0.956314,-0.19351 -1.369942,-0.0248 -0.17367,0.0708 -0.319939,0.16384 -0.531234,0.33848 -0.224361,0.18534 -0.34825,0.26014 -0.501778,0.30334 -0.200748,0.0563 -0.414639,0.0151 -0.58291,-0.11214 -0.06367,-0.0481 -0.137176,-0.12948 -0.192237,-0.20929 v -1.3627 c -0.987659,-0.0324 0.0032,0.0535 -1.130163,-0.002 -1.521749,0.0495 -2.299264,-0.43362 -2.331641,-1.44953 v -1.3379 c 0,-0.38408 0.0486,-0.68805 0.145728,-0.91105 0.161886,-0.48319 0.971282,-0.72451 2.428275,-0.72451 h 11.534697 v -1.02526 c 0.0068,-0.0224 0.01339,-0.0447 0.0217,-0.0677 0.04732,-0.13102 0.09075,-0.20393 0.180867,-0.30334 0.08453,-0.0932 0.131556,-0.12954 0.225826,-0.17415 0.238003,-0.11266 0.509455,-0.0731 0.773596,0.11213 0.03213,0.0225 0.120284,0.0921 0.195854,0.15452 0.235783,0.19475 0.385003,0.28579 0.591178,0.36121 0.109765,0.0401 0.405816,0.0152 0.507463,0.0264 0.104477,0.0115 0.28663,0.005 0.390157,-0.0139 0.111755,-0.0206 0.299096,-0.0889 0.403076,-0.14676 0.379861,-0.2115 0.681143,-0.62819 0.786516,-1.08831 0.03749,-0.16371 0.05007,-0.30291 0.05013,-0.54725 7.9e-5,-0.32297 -0.02749,-0.51383 -0.108004,-0.74414 -0.130577,-0.37354 -0.410011,-0.71547 -0.728638,-0.89142 -0.367344,-0.20285 -0.947,-0.16199 -1.36064,0.006 -0.173675,0.0708 -0.319939,0.16386 -0.531234,0.33848 -0.224332,0.18541 -0.347702,0.26022 -0.501261,0.30334 -0.200739,0.0563 -0.414631,0.0151 -0.58291,-0.11214 -0.08636,-0.0653 -0.19127,-0.19169 -0.24288,-0.29249 -0.02833,-0.0553 -0.0518,-0.11251 -0.0708,-0.1757 v -1.20199 z m 3.825606,15.37839 v 0.0331 z" /><path
       id="text1-5-0-2-4"
       style="font-size:37.3333px;font-family:DigitalSans_Bold;-inkscape-font-specification:DigitalSans_Bold;white-space:pre;fill:#4bffac;fill-opacity:1;stroke-width:8.36852"
       d="m 80.288887,125.77309 0.03204,1.23196 c 0.03552,0.10016 0.07014,0.15604 0.131775,0.21394 0.05108,0.0481 0.05853,0.0527 0.122474,0.0729 0.16662,0.0527 0.312115,4.2e-4 0.620117,-0.22325 0.192718,-0.13936 0.261323,-0.18626 0.370003,-0.24546 0.250612,-0.13786 0.533123,-0.22703 0.802535,-0.25373 0.447532,-0.0443 0.979058,0.0847 1.319299,0.32039 0.164242,0.11375 0.36149,0.31162 0.496094,0.49765 0.202092,0.27929 0.37507,0.82649 0.37207,1.18029 -6.7e-4,0.0893 -0.0193,0.25281 -0.03876,0.34881 -0.05216,0.25146 -0.151516,0.52232 -0.259932,0.71417 -0.127497,0.22438 -0.377147,0.48913 -0.600481,0.63614 -0.122078,0.0803 -0.310013,0.16412 -0.478523,0.21342 -0.405969,0.11972 -0.817645,0.12262 -1.191659,0.008 -0.271411,-0.083 -0.476013,-0.19097 -0.76171,-0.40153 -0.169834,-0.12521 -0.26745,-0.18684 -0.3483,-0.22014 -0.199897,-0.0824 -0.369895,-0.0433 -0.478523,0.11007 -0.04125,0.0586 -0.08468,0.16913 -0.108521,0.26975 v 0.99012 h 1.2361 c -0.806276,0 -0.941888,0.004 -1.2361,0.007 v 0.0346 c 0.97445,0.0278 2.650782,0.0695 2.887162,0.12558 0.453287,0.12389 0.680062,0.48949 0.680062,1.09657 0.03238,0.9416 0.01618,1.71629 -0.04858,2.32337 -0.06476,0.29733 -0.291534,0.52623 -0.680061,0.6873 -0.40472,0.19823 -1.003537,0.29766 -1.79679,0.29766 h -11.53469 v 5.44514 h 14.060123 c 4.646189,-0.0495 5.959347,-1.84026 6.056478,-5.37125 v -5.09168 c -0.09713,-3.27078 -1.240207,-4.94345 -5.546431,-5.01778 z"
       sodipodi:nodetypes="cccccccsscccscsccccccccccccsccccccc" /><path
       style="fill:#000000;stroke-width:0.0310516"
       d="m 47.899953,197.90833 c 0.111319,0.0189 0.251882,0.0716 0.320398,0.11991 0.153369,0.1086 0.192448,0.27859 0.110093,0.47847 -0.03334,0.0808 -0.09498,0.17851 -0.220209,0.34834 -0.210559,0.2857 -0.318423,0.4904 -0.401406,0.76181 -0.114361,0.37403 -0.111732,0.78586 0.008,1.19182 0.04929,0.16851 0.133439,0.35634 0.213839,0.4784 0.147083,0.22331 0.411688,0.4732 0.636061,0.6007 0.191827,0.10844 0.462664,0.20741 0.714129,0.25957 0.09594,0.0195 0.259356,0.0381 0.34864,0.0388 0.353784,0.003 0.901239,-0.16991 1.180526,-0.372 0.186023,-0.1346 0.383661,-0.3316 0.497403,-0.49584 0.235687,-0.34025 0.364851,-0.87189 0.320551,-1.31942 -0.02674,-0.26941 -0.11609,-0.55181 -0.253943,-0.80243 -0.05932,-0.10866 -0.105878,-0.1773 -0.245171,-0.37005 -0.2237,-0.30798 -0.276043,-0.45352 -0.22332,-0.62014 0.02024,-0.0639 0.02478,-0.0716 0.07292,-0.12271 0.05799,-0.0617 0.11386,-0.0959 0.214048,-0.13142 z"
       id="path2-0-1"
       sodipodi:nodetypes="csssssssccssssssccc" /><path
       style="fill:#000000;stroke-width:0.0313667"
       d="m 57.480692,198.01893 c -0.239529,0.0202 -0.39865,0.0593 -0.543449,0.13345 -0.100792,0.0516 -0.227165,0.15658 -0.292459,0.24294 -0.12723,0.16829 -0.168306,0.3822 -0.111994,0.58295 0.04323,0.15353 0.117889,0.27719 0.303212,0.50156 0.174622,0.21132 0.267819,0.35748 0.338643,0.53115 0.16872,0.41362 0.178027,1.00286 -0.0249,1.37022 -0.175978,0.31861 -0.517899,0.59817 -0.891434,0.72874 -0.2303,0.0805 -0.420998,0.10825 -0.743977,0.10818 -0.244348,-5e-5 -0.383674,-0.0128 -0.547357,-0.0504 -0.460122,-0.10537 -0.87688,-0.40649 -1.088388,-0.78633 -0.05779,-0.10401 -0.125972,-0.2914 -0.146499,-0.40316 -0.01939,-0.10344 -0.05341,-0.45238 -0.04181,-0.55685 0.01118,-0.10163 0.0451,-0.24094 0.08517,-0.35071 0.0754,-0.20618 0.166595,-0.35534 0.361339,-0.59112 0.06237,-0.0755 0.13191,-0.16369 0.154457,-0.19583 0.185235,-0.26413 0.224456,-0.53546 0.111795,-0.77346 -0.04503,-0.0941 -0.08095,-0.14143 -0.17421,-0.22597 -0.09972,-0.0898 -0.172031,-0.13336 -0.303043,-0.18069 -0.131453,-0.0474 -0.241497,-0.0678 -0.456329,-0.0862 z"
       id="path2-6-7-1"
       sodipodi:nodetypes="cssssssscssccsscssscc" /></g></svg>
